#!Matlab matrix to amc conversion
:FULLY-SPECIFIED
:DEGREES
46
root -0.344425 0.731761 17.886516 5.592451 -5.622759 2.586854
lowerback -5.534663 0.774275 -3.552573
upperback -1.428002 1.199038 0.371885
thorax 1.490930 0.595969 2.423864
lowerneck -23.293363 -1.998238 -10.742466
upperneck 28.842797 -1.863177 9.610066
head 13.897049 -0.645171 5.395504
rclavicle -0.000000 -0.000000
rhumerus -28.974362 17.894251 -90.141204
rradius 33.197522
rwrist -16.872467
rhand -28.856200 -18.800500
rfingers 7.125020
rthumb -2.212790 -48.768800
lclavicle -0.000000 -0.000000
lhumerus -39.086424 14.013034 77.528633
lradius 11.176919
lwrist -24.422550
lhand -19.668800 -28.799300
lfingers 7.125020
lthumb 6.659510 1.076010
rfemur -18.818843 -4.661976 16.912155
rtibia 71.193344
rfoot 2.568379 -17.511775
rtoes -20.766800
lfemur -17.238164 5.343646 -28.602006
ltibia 18.251887
lfoot -7.780972 2.761866
ltoes -22.051700
47
root -0.343021 0.769634 18.250208 5.478947 -4.737281 2.257514
lowerback -5.808155 0.179228 -3.169243
upperback -1.402677 0.396019 0.684237
thorax 1.722918 0.190296 2.485498
lowerneck -23.160627 -1.632767 -10.427656
upperneck 29.554882 -1.356101 9.153989
head 14.087510 -0.468000 5.278322
rclavicle -0.000000 -0.000000
rhumerus -30.482441 18.197707 -90.622444
rradius 32.435818
rwrist -16.466228
rhand -28.856200 -18.800500
rfingers 7.125020
rthumb -2.212790 -48.768800
lclavicle -0.000000 -0.000000
lhumerus -35.864290 9.035603 82.292505
lradius 12.749269
lwrist -18.778513
lhand -19.668800 -28.799300
lfingers 7.125020
lthumb 6.659510 1.076010
rfemur -22.206531 -5.131208 18.018210
rtibia 71.553167
rfoot -1.291803 -16.560936
rtoes -20.766800
lfemur -15.317834 4.030900 -28.289219
ltibia 18.037601
lfoot -9.132601 3.126670
ltoes -22.051700
48
root -0.348065 0.781803 18.612247 5.315363 -3.637037 1.714002
lowerback -5.826625 -0.388405 -2.738662
upperback -1.418421 -0.380370 1.061460
thorax 1.787495 -0.199019 2.589438
lowerneck -22.978911 -1.392935 -10.220050
upperneck 30.125833 -1.034148 8.831917
head 14.238384 -0.363892 5.194968
rclavicle -0.000000 -0.000000
rhumerus -32.463318 18.394986 -91.052773
rradius 31.967606
rwrist -16.236752
rhand -28.856200 -18.800500
rfingers 7.125020
rthumb -2.212790 -48.768800
lclavicle -0.000000 -0.000000
lhumerus -32.763431 3.905266 85.869317
lradius 14.693856
lwrist -13.777636
lhand -19.668800 -28.799300
lfingers 7.125020
lthumb 6.659510 1.076010
rfemur -25.110373 -5.697008 19.606269
rtibia 70.328039
rfoot -4.389849 -14.876220
rtoes -20.766800
lfemur -13.633588 3.162488 -27.689414
ltibia 18.574623
lfoot -10.681638 2.883511
ltoes -22.051700
49
root -0.354838 0.772868 18.977119 5.179364 -2.467603 1.453252
lowerback -5.789826 -0.921050 -2.670016
upperback -1.426921 -1.096902 1.341154
thorax 1.826650 -0.557678 2.797716
lowerneck -22.850185 -1.255105 -10.107931
upperneck 30.511799 -0.849896 8.650923
head 14.348561 -0.307531 5.152835
rclavicle -0.000000 -0.000000
rhumerus -34.603663 18.648346 -91.459539
rradius 31.918414
rwrist -16.392980
rhand -28.856200 -18.800500
rfingers 7.125020
rthumb -2.212790 -48.768800
lclavicle -0.000000 -0.000000
lhumerus -29.938044 -1.264758 88.575185
lradius 16.825462
lwrist -9.061366
lhand -19.668800 -28.799300
lfingers 7.125020
lthumb 6.659510 1.076010
rfemur -27.539033 -6.293591 20.770214
rtibia 68.184151
rfoot -6.706860 -12.964587
rtoes -20.766800
lfemur -12.137037 2.491131 -27.362356
ltibia 19.258550
lfoot -12.318018 2.446143
ltoes -22.051700
50
root -0.363756 0.748836 19.343768 5.079697 -1.436823 1.520130
lowerback -5.838123 -1.437441 -2.945528
upperback -1.416906 -1.775641 1.518564
thorax 1.929376 -0.898078 3.091403
lowerneck -22.848712 -1.104353 -9.985201
upperneck 30.969279 -0.635399 8.466751
head 14.511617 -0.236081 5.118338
rclavicle 0.000000 -0.000000
rhumerus -36.730683 19.128672 -91.962152
rradius 32.235254
rwrist -17.002703
rhand -28.856200 -18.800500
rfingers 7.125020
rthumb -2.212790 -48.768800
lclavicle 0.000000 -0.000000
lhumerus -27.366885 -6.488424 90.692678
lradius 18.996761
lwrist -4.504034
lhand -19.668800 -28.799300
lfingers 7.125020
lthumb 6.659510 1.076010
rfemur -29.674774 -6.830511 21.341454
rtibia 65.516182
rfoot -8.494382 -11.002151
rtoes -20.766800
lfemur -10.840860 1.868887 -27.419348
ltibia 20.094708
lfoot -14.160855 2.019252
ltoes -22.051700
51
root -0.377530 0.715412 19.710388 5.034785 -0.412616 1.762517
lowerback -5.888974 -1.933983 -3.434263
upperback -1.414078 -2.418541 1.632026
thorax 2.029687 -1.220382 3.438131
lowerneck -22.861294 -0.987650 -9.912360
upperneck 31.316259 -0.468332 8.363010
head 14.640944 -0.177810 5.111470
rclavicle 0.000000 -0.000000
rhumerus -38.954618 19.647081 -92.490061
rradius 32.787478
rwrist -17.810176
rhand -28.856200 -18.800500
rfingers 7.125020
rthumb -2.212790 -48.768800
lclavicle 0.000000 -0.000000
lhumerus -24.962047 -11.378657 92.026567
lradius 21.223231
lwrist -0.516043
lhand -19.668800 -28.799300
lfingers 7.125020
lthumb 6.659510 1.076010
rfemur -31.531070 -7.267209 21.564819
rtibia 62.162655
rfoot -9.886206 -9.164601
rtoes -20.766800
lfemur -9.498160 1.419249 -27.658519
ltibia 20.679288
lfoot -15.922422 1.495305
ltoes -22.051700
52
root -0.396585 0.677075 20.076977 5.067905 0.709201 2.089597
lowerback -5.852108 -2.376378 -4.036468
upperback -1.431467 -2.985075 1.691331
thorax 2.063549 -1.503801 3.797585
lowerneck -22.793571 -0.985555 -9.970718
upperneck 31.319565 -0.474352 8.457532
head 14.638466 -0.177841 5.158880
rclavicle 0.000000 -0.000000
rhumerus -41.215758 19.961573 -92.888988
rradius 33.454043
rwrist -18.554491
rhand -28.856200 -18.800500
rfingers 7.125020
rthumb -2.212790 -48.768800
lclavicle 0.000000 -0.000000
lhumerus -22.682570 -15.497910 92.469408
lradius 23.464354
lwrist 2.522399
lhand -19.668800 -28.799300
lfingers 7.125020
lthumb 6.659510 1.076010
rfemur -33.045770 -7.451530 21.517894
rtibia 58.104065
rfoot -10.970855 -7.706654
rtoes -20.766800
lfemur -7.905218 1.224632 -27.918648
ltibia 20.501328
lfoot -17.196900 0.855931
ltoes -22.051700
